Coordinates
version=1
nRows=8
nColumns=36
inDegrees=yes

Units are S.I. units (second, meters, Newtons, ...)
If the header above contains a line with 'inDegrees', this indicates whether rotational values are in degrees (yes) or radians (no).

endheader
time	pelvis_tilt	pelvis_list	pelvis_rotation	pelvis_tx	pelvis_ty	pelvis_tz	hip_flexion_r	hip_adduction_r	hip_rotation_r	knee_angle_r	knee_angle_r_beta	ankle_angle_r	subtalar_angle_r	mtp_angle_r	hip_flexion_l	hip_adduction_l	hip_rotation_l	knee_angle_l	knee_angle_l_beta	ankle_angle_l	subtalar_angle_l	mtp_angle_l	lumbar_extension	lumbar_bending	lumbar_rotation	arm_flex_r	arm_add_r	arm_rot_r	elbow_flex_r	pro_sup_r	arm_flex_l	arm_add_l	arm_rot_l	elbow_flex_l	pro_sup_l
      0.47000000	     -2.88136550	     -1.56207044	      0.06026231	      0.40189137	      1.13044166	     -0.23460909	     -4.33724155	      7.80614469	      2.57752698	      2.21596456	      0.03867588	      4.74127766	      0.02114063	     -7.49994605	     32.83655165	     -1.10649660	     -4.71675047	     22.71671442	      0.39648146	      2.82593311	     -6.26626525	     -7.49994605	    -14.30113617	      6.97182682	      0.97461036	     -0.77909881	    -10.74890343	     -9.97911559	     42.53183577	     89.82076736	     -6.78698065	     -5.54424299	     -4.93628216	     42.92616563	     97.43195511
      0.48000000	     -2.98022519	     -1.48285494	     -0.22855258	      0.41059817	      1.12678190	     -0.23381633	     -4.62487339	      7.63966862	      2.26443671	      2.23046686	      0.03892899	      6.73341833	      0.16333492	     -7.49994801	     33.00293992	     -1.02589738	     -4.93059016	     21.34947881	      0.37261870	      2.90080109	     -5.68705660	     -7.49994801	    -14.25174313	      6.61708401	      1.01564270	     -0.61546121	    -10.72718218	     -9.90459169	     42.49671959	     89.48396109	     -6.54743126	     -5.56798378	     -5.06620917	     42.67002701	     97.18093039
      0.49000000	     -3.08588406	     -1.38323998	     -0.50652451	      0.41929822	      1.12326219	     -0.23277432	     -4.87912793	      7.45468777	      2.20465513	      2.25478416	      0.03935341	      8.58437548	     -0.22117805	     -7.49995892	     33.14668252	     -0.93660338	     -5.14475234	     20.05274684	      0.34998646	      2.94825308	     -5.05417243	     -7.49995892	    -14.25002606	      6.25147856	      1.06925707	     -0.49090993	    -10.62833196	    -10.35119292	     42.48276508	     91.78349765	     -6.32653654	     -5.49810441	     -5.82321333	     42.53338231	     99.61231801
      0.50000000	     -3.14690947	     -1.28650454	     -0.77720223	      0.42805490	      1.12024907	     -0.23152230	     -5.17434178	      7.28503449	      2.14612298	      2.30474121	      0.04022532	     10.39761695	     -0.53883579	     -7.49996165	     33.20545565	     -0.85398283	     -5.31439277	     18.81208926	      0.32833290	      3.00209853	     -4.45186119	     -7.49996165	    -14.26546967	      5.87193334	      1.15278165	     -0.36390654	    -10.66015591	    -10.01437751	     42.33234506	     90.47727322	     -6.00051131	     -5.67458351	     -5.39232097	     42.18299073	     98.40055844
      0.51000000	     -3.19482450	     -1.23543468	     -0.98218835	      0.43698662	      1.11791469	     -0.23027967	     -5.49573327	      7.19003918	      2.02171534	      2.37288061	      0.04141458	     12.01206977	     -0.70335508	     -7.49996426	     33.22961309	     -0.78496976	     -5.36753815	     17.62970623	      0.30769642	      3.02917342	     -3.96392481	     -7.49996426	    -14.29044544	      5.51365005	      1.21066054	     -0.28556617	    -10.62394124	     -9.95399925	     42.19902787	     89.72757846	     -5.69391115	     -5.83253114	     -5.26815746	     41.88085524	     97.82382861
      0.52000000	     -3.29383520	     -1.21890496	     -1.17842703	      0.44621329	      1.11623249	     -0.22903811	     -5.78459213	      7.16251860	      2.09256257	      2.47070435	      0.04312193	     13.28402551	     -1.05478096	     -7.49997184	     33.26515008	     -0.74471023	     -5.36634128	     16.47364681	      0.28751938	      3.04649399	     -3.54568388	     -7.49997184	    -14.22226620	      5.17876274	      1.26037376	     -0.27103541	    -10.44548089	    -10.58040347	     42.05814390	     91.40630801	     -5.41295285	     -5.82188611	     -5.96507562	     41.55513145	     99.81765874
      0.53000000	     -3.38748025	     -1.21716592	     -1.38392105	      0.45581563	      1.11525776	     -0.22787932	     -6.11331436	      7.17105538	      2.21379994	      2.58242405	      0.04507180	     14.31560599	     -1.36224682	     -7.49997220	     33.21265656	     -0.71363855	     -5.34204739	     15.28030136	      0.26669157	      2.95828212	     -3.22645992	     -7.49997220	    -14.13280021	      4.83010067	      1.25816600	     -0.25331751	    -10.36660004	    -10.58243539	     41.91028180	     91.40971610	     -5.23150974	     -5.97638341	     -6.02030364	     41.32226157	     99.81125456
      0.54000000	     -3.34337223	     -1.19973532	     -1.59224415	      0.46582709	      1.11507343	     -0.22686016	     -6.64451110	      7.16946021	      2.37130534	      2.68208926	      0.04681129	     15.11331521	     -1.49612880	     -7.49997274	     32.89512706	     -0.66435727	     -5.42414303	     13.99633095	      0.24428206	      2.87518693	     -2.84923666	     -7.49997274	    -14.15366242	      4.43086838	      1.29526809	     -0.22675957	    -10.26470545	    -10.65145314	     41.58090445	     91.38072014	     -4.93553049	     -6.10562862	     -6.08404095	     40.87790823	     99.78519027
